<svg width="232" height="232" viewBox="0 0 232 232" fill="none" xmlns="http://www.w3.org/2000/svg">
<path d="M212.646 124.141C212.345 125.04 211.875 125.724 211.235 126.194C210.594 126.677 209.855 126.884 209.017 126.816C208.207 126.751 207.516 126.44 206.946 125.886C206.375 125.331 205.958 124.622 205.694 123.757C205.443 122.894 205.357 121.971 205.437 120.988C205.513 120.057 205.733 119.152 206.099 118.272C206.477 117.407 206.994 116.639 207.65 115.97L208.663 116.594C208.095 117.163 207.64 117.829 207.297 118.59C206.968 119.353 206.771 120.133 206.706 120.93C206.644 121.688 206.707 122.395 206.895 123.052C207.082 123.71 207.38 124.242 207.789 124.65C208.209 125.072 208.725 125.308 209.336 125.357C210.147 125.423 210.798 125.155 211.288 124.553C211.778 123.95 212.07 123.071 212.164 121.915L212.407 118.925L213.603 119.022L213.367 121.932C213.287 122.916 213.431 123.697 213.799 124.275C214.179 124.868 214.741 125.194 215.485 125.255C216.309 125.321 216.982 125.022 217.504 124.355C218.04 123.689 218.351 122.825 218.437 121.762C218.491 121.097 218.446 120.418 218.302 119.724C218.171 119.031 217.937 118.364 217.601 117.721L218.858 117.321C219.57 118.77 219.86 120.299 219.73 121.907C219.653 122.851 219.43 123.702 219.061 124.461C218.691 125.221 218.203 125.803 217.595 126.208C216.985 126.627 216.295 126.805 215.525 126.743C214.78 126.682 214.153 126.424 213.641 125.968C213.143 125.513 212.811 124.904 212.646 124.141Z" fill="#E6FB04"/>
<path d="M209.167 142.647C208.723 143.536 208.152 144.15 207.454 144.488C206.77 144.83 205.976 144.88 205.075 144.639C203.902 144.326 203.112 143.667 202.705 142.661C202.294 141.668 202.303 140.367 202.733 138.756L204.332 132.766L217.858 136.377L216.357 142C215.972 143.443 215.375 144.491 214.566 145.144C213.756 145.798 212.791 145.975 211.671 145.676C210.911 145.473 210.318 145.107 209.893 144.58C209.481 144.056 209.239 143.412 209.167 142.647ZM211.356 136.152L210.252 140.287C209.974 141.331 209.973 142.186 210.25 142.854C210.524 143.534 211.067 143.983 211.878 144.199C212.69 144.416 213.384 144.297 213.96 143.844C214.533 143.404 214.959 142.662 215.238 141.618L216.341 137.483L211.356 136.152ZM203.873 139.061C203.25 141.392 203.809 142.79 205.548 143.255C207.248 143.708 208.41 142.77 209.032 140.438L210.254 135.858L205.095 134.481L203.873 139.061Z" fill="#E6FB04"/>
<path d="M197.091 153.983C197.706 152.74 198.54 151.747 199.592 151.004C200.651 150.278 201.806 149.868 203.058 149.773C204.304 149.691 205.53 149.949 206.737 150.546C207.944 151.144 208.892 151.963 209.582 153.003C210.266 154.056 210.634 155.22 210.687 156.496C210.746 157.79 210.468 159.058 209.853 160.301C209.237 161.544 208.409 162.525 207.369 163.244C206.322 163.976 205.167 164.386 203.903 164.475C202.651 164.569 201.422 164.317 200.215 163.72C199.008 163.123 198.057 162.294 197.361 161.236C196.677 160.183 196.309 159.019 196.256 157.743C196.197 156.479 196.476 155.226 197.091 153.983ZM198.274 154.569C197.783 155.56 197.56 156.566 197.606 157.586C197.664 158.611 197.974 159.546 198.538 160.39C199.114 161.241 199.892 161.909 200.872 162.394C201.852 162.879 202.848 163.089 203.862 163.026C204.887 162.968 205.819 162.648 206.657 162.067C207.508 161.491 208.179 160.707 208.67 159.715C209.161 158.723 209.38 157.709 209.328 156.672C209.283 155.652 208.975 154.711 208.405 153.849C207.841 153.004 207.069 152.34 206.089 151.854C205.11 151.369 204.107 151.156 203.081 151.213C202.062 151.289 201.127 151.615 200.277 152.191C199.432 152.784 198.765 153.577 198.274 154.569Z" fill="#E6FB04"/>
<path d="M194.543 183.671L183.625 174.908L184.539 173.77L189.577 177.813L195.06 170.981L190.022 166.938L190.948 165.783L201.866 174.546L200.94 175.701L196.073 171.795L190.59 178.627L195.457 182.532L194.543 183.671Z" fill="#E6FB04"/>
<path d="M187.325 191.555L186.19 192.473L178.896 183.453L179.222 198.107L178.18 198.949L169.378 188.063L170.513 187.145L177.794 196.149L177.481 181.511L178.523 180.668L187.325 191.555Z" fill="#E6FB04"/>
<path d="M149.741 200.501L149.212 199.336L158.226 195.243L164.015 207.99L155.274 211.959L154.744 210.794L162.138 207.436L160.079 202.902L153.487 205.895L152.966 204.748L159.558 201.755L157.408 197.02L149.741 200.501Z" fill="#E6FB04"/>
<path d="M138.361 202.648C139.704 202.306 140.995 202.294 142.231 202.611C143.455 202.933 144.51 203.537 145.397 204.426C146.274 205.331 146.879 206.436 147.212 207.741C147.544 209.046 147.54 210.299 147.199 211.5C146.849 212.718 146.207 213.762 145.273 214.633C144.339 215.503 143.2 216.11 141.857 216.452C140.849 216.709 139.876 216.778 138.937 216.659C137.999 216.541 137.15 216.234 136.391 215.739L137.07 214.597C138.403 215.399 139.877 215.595 141.492 215.183C142.564 214.91 143.477 214.416 144.231 213.701C144.984 212.986 145.504 212.138 145.791 211.157C146.065 210.179 146.067 209.161 145.797 208.101C145.527 207.042 145.038 206.148 144.33 205.42C143.608 204.696 142.746 204.2 141.742 203.933C140.739 203.666 139.701 203.669 138.628 203.942C137 204.357 135.801 205.24 135.031 206.592L133.888 205.913C134.318 205.116 134.921 204.432 135.698 203.863C136.465 203.31 137.353 202.905 138.361 202.648Z" fill="#E6FB04"/>
<path d="M118.059 219.643L117.249 205.667L118.706 205.582L119.442 218.281L126.191 217.89L126.08 213.209C126.034 211.275 126.104 209.708 126.288 208.509C126.46 207.323 126.782 206.423 127.254 205.808C127.726 205.207 128.382 204.881 129.221 204.833C129.58 204.812 129.955 204.837 130.347 204.908L130.303 206.233C130.074 206.192 129.853 206.179 129.64 206.191C129.054 206.225 128.595 206.485 128.263 206.972C127.917 207.459 127.679 208.194 127.549 209.177C127.42 210.173 127.368 211.478 127.395 213.092L127.543 219.094L118.059 219.643Z" fill="#E6FB04"/>
<path d="M107.799 219.576L106.356 219.352L108.136 207.889L97.5023 217.977L96.1781 217.772L98.3259 203.937L99.7686 204.161L97.9921 215.604L108.623 205.536L109.947 205.742L107.799 219.576Z" fill="#E6FB04"/>
<path d="M70.8952 209.374L76.5408 196.563L77.8586 197.144L75.5197 202.451C77.1741 202.466 78.654 202.761 79.9595 203.337C81.4603 203.998 82.4703 204.88 82.9896 205.983C83.4967 207.081 83.4599 208.289 82.8792 209.606L81.0161 213.834L79.6801 213.245L81.4786 209.164C81.9141 208.176 81.9417 207.27 81.5614 206.447C81.1811 205.624 80.4297 204.965 79.3072 204.47C78.0261 203.905 76.5861 203.635 74.9874 203.659L72.213 209.955L70.8952 209.374Z" fill="#E6FB04"/>
<path d="M61.6421 189.004L62.3567 187.942L70.5702 193.469L62.7542 205.084L54.7896 199.725L55.5042 198.663L62.2409 203.196L65.0212 199.064L59.0146 195.022L59.718 193.977L65.7246 198.019L68.6277 193.705L61.6421 189.004ZM59.3388 204.714C59.5379 204.848 59.6647 205.03 59.7192 205.26C59.7626 205.482 59.7136 205.698 59.5722 205.908C59.4382 206.107 59.2602 206.228 59.0381 206.272C58.7975 206.319 58.5777 206.275 58.3785 206.141C58.1905 206.015 58.073 205.831 58.0259 205.591C57.9714 205.361 58.0112 205.147 58.1452 204.948C58.2792 204.749 58.4665 204.626 58.707 204.578C58.9291 204.535 59.1397 204.58 59.3388 204.714ZM56.3853 202.727C56.5844 202.861 56.7112 203.043 56.7657 203.272C56.8016 203.505 56.7526 203.721 56.6186 203.92C56.4846 204.12 56.3011 204.237 56.0679 204.273C55.8274 204.32 55.6131 204.28 55.425 204.154C55.2259 204.02 55.1083 203.836 55.0724 203.603C55.0179 203.374 55.0576 203.159 55.1916 202.96C55.3331 202.75 55.5204 202.627 55.7535 202.591C55.9756 202.548 56.1861 202.593 56.3853 202.727Z" fill="#E6FB04"/>
<path d="M37.0236 172.301C36.669 171.423 36.5827 170.597 36.7648 169.824C36.9392 169.041 37.3669 168.403 38.048 167.911C38.7074 167.435 39.4341 167.223 40.2279 167.275C41.0218 167.327 41.7997 167.596 42.5616 168.082C43.3127 168.575 43.977 169.222 44.5544 170.022C45.1007 170.779 45.5202 171.611 45.8131 172.518C46.0873 173.422 46.1918 174.341 46.1267 175.276L44.9512 175.459C45.0139 174.657 44.9285 173.855 44.6951 173.053C44.4509 172.26 44.0947 171.538 43.6265 170.89C43.1816 170.273 42.6746 169.776 42.1055 169.398C41.5363 169.019 40.9641 168.807 40.3888 168.762C39.7949 168.714 39.2493 168.869 38.752 169.228C38.0926 169.704 37.7718 170.331 37.7896 171.107C37.8074 171.884 38.1558 172.742 38.8347 173.683L40.5905 176.115L39.6176 176.817L37.9085 174.45C37.3311 173.65 36.7148 173.149 36.0597 172.948C35.386 172.743 34.7464 172.86 34.141 173.297C33.4707 173.781 33.1532 174.446 33.1884 175.292C33.2128 176.146 33.5372 177.005 34.1615 177.87C34.5517 178.411 35.0269 178.898 35.587 179.332C36.1364 179.774 36.7473 180.131 37.4198 180.402L36.7232 181.521C35.2413 180.881 34.0283 179.907 33.084 178.598C32.53 177.831 32.147 177.038 31.9353 176.221C31.7235 175.404 31.7174 174.644 31.9169 173.94C32.1087 173.226 32.518 172.643 33.1451 172.19C33.7505 171.753 34.3958 171.543 35.0809 171.558C35.7553 171.581 36.4029 171.829 37.0236 172.301Z" fill="#E6FB04"/>
<path d="M27.7827 156.199C27.5408 155.235 27.5743 154.397 27.8832 153.686C28.1801 152.981 28.749 152.426 29.59 152.022C30.6833 151.495 31.7123 151.481 32.6768 151.979C33.6356 152.464 34.4763 153.458 35.1991 154.96L37.8879 160.546L25.2728 166.618L22.7489 161.373C22.1013 160.028 21.8717 158.844 22.06 157.821C22.2484 156.798 22.8652 156.035 23.9105 155.532C24.6193 155.191 25.3068 155.082 25.9728 155.205C26.6269 155.334 27.2301 155.665 27.7827 156.199ZM30.3525 162.553L28.4964 158.696C28.028 157.723 27.4713 157.073 26.8262 156.748C26.1753 156.41 25.4714 156.423 24.7145 156.787C23.9576 157.152 23.5081 157.693 23.3661 158.413C23.2182 159.12 23.3785 159.961 23.8468 160.934L25.7029 164.79L30.3525 162.553ZM34.1359 155.471C33.0893 153.297 31.755 152.6 30.1331 153.38C28.5472 154.144 28.2775 155.613 29.3241 157.787L31.3797 162.058L36.1914 159.743L34.1359 155.471Z" fill="#E6FB04"/>
<path d="M29.5236 139.559C29.8609 140.904 29.8698 142.201 29.5505 143.45C29.215 144.688 28.6013 145.749 27.7094 146.633C26.8142 147.503 25.7135 148.102 24.4072 148.43C23.101 148.757 21.8479 148.749 20.6479 148.403C19.4447 148.045 18.4095 147.397 17.5422 146.46C16.6587 145.513 16.0483 144.367 15.7111 143.022C15.3739 141.677 15.3682 140.393 15.694 139.171C16.0165 137.935 16.6302 136.874 17.5351 135.988C18.427 135.104 19.5261 134.499 20.8324 134.171C22.1386 133.844 23.3998 133.857 24.616 134.212C25.8192 134.57 26.8544 135.218 27.7217 136.155C28.5858 137.08 29.1864 138.214 29.5236 139.559ZM28.2433 139.88C27.9741 138.807 27.4917 137.897 26.7959 137.15C26.0872 136.407 25.2445 135.897 24.2677 135.619C23.2779 135.345 22.2528 135.341 21.1923 135.607C20.1318 135.873 19.2363 136.358 18.506 137.064C17.7627 137.772 17.2604 138.62 16.9991 139.607C16.7249 140.596 16.7224 141.628 16.9915 142.701C17.2606 143.775 17.7512 144.69 18.4631 145.446C19.1589 146.192 20.0033 146.709 20.9962 146.996C21.973 147.274 22.9917 147.28 24.0522 147.014C25.1127 146.748 26.0146 146.261 26.7579 145.552C27.485 144.833 27.9857 143.979 28.2599 142.99C28.5179 141.99 28.5124 140.954 28.2433 139.88Z" fill="#E6FB04"/>
<path d="M12.2018 115.463L26.1951 115.031L26.2402 116.49L19.7833 116.69L20.0537 125.445L26.5107 125.246L26.5563 126.725L12.563 127.157L12.5173 125.678L18.7544 125.485L18.4839 116.73L12.2469 116.922L12.2018 115.463Z" fill="#E6FB04"/>
<path d="M12.5477 104.676L12.8157 103.241L24.2185 105.371L14.4608 94.4335L14.7068 93.1162L28.4688 95.6867L28.2008 97.1218L16.8176 94.9957L26.5557 105.93L26.3097 107.247L12.5477 104.676Z" fill="#E6FB04"/>
<path d="M35.3586 73.4632L36.5161 74.0097L32.2892 82.962L19.6294 76.9845L23.7282 68.3035L24.8857 68.85L21.4187 76.1927L25.922 78.319L29.0132 71.7721L30.1526 72.31L27.0614 78.857L31.7636 81.0771L35.3586 73.4632Z" fill="#E6FB04"/>
<path d="M42.5718 64.504C41.7684 65.6343 40.7924 66.4782 39.6436 67.0357C38.5025 67.5824 37.3065 67.8037 36.0554 67.6997C34.8012 67.577 33.6253 67.1256 32.5276 66.3454C31.43 65.5652 30.6226 64.6069 30.1053 63.4704C29.585 62.3153 29.3993 61.1037 29.5482 59.8354C29.6972 58.5672 30.1733 57.368 30.9767 56.2377C31.5792 55.39 32.2767 54.708 33.0691 54.1916C33.8614 53.6751 34.707 53.3601 35.6057 53.2464L35.8273 54.5572C34.2919 54.8072 33.0413 55.6114 32.0758 56.9699C31.4346 57.8719 31.0579 58.8392 30.9456 59.8717C30.8333 60.9043 30.9852 61.8874 31.4012 62.8211C31.8249 63.7439 32.4823 64.522 33.3735 65.1554C34.2646 65.7888 35.2156 66.154 36.2264 66.2508C37.2449 66.3368 38.2233 66.1571 39.1616 65.7116C40.0998 65.2661 40.8895 64.5924 41.5307 63.6904C42.504 62.321 42.847 60.8718 42.5598 59.3426L43.8706 59.121C44.0586 60.0072 44.0406 60.9186 43.8165 61.8553C43.5892 62.7734 43.1743 63.6563 42.5718 64.504Z" fill="#E6FB04"/>
<path d="M47.1736 38.1999L56.8181 48.3479L55.7598 49.3537L46.9971 40.1335L42.0971 44.7904L45.2051 48.293C46.4887 49.7403 47.4474 50.9813 48.0812 52.016C48.7155 53.0319 49.0512 53.927 49.088 54.7012C49.1157 55.4659 48.8252 56.1375 48.2163 56.7162C47.9553 56.9642 47.6526 57.1876 47.308 57.3863L46.4856 56.3468C46.6867 56.2293 46.8645 56.0971 47.0192 55.9501C47.4444 55.546 47.6268 55.0507 47.5662 54.4645C47.5154 53.869 47.2223 53.1542 46.6871 52.3201C46.1427 51.4763 45.339 50.4467 44.2759 49.2314L40.2875 44.7444L47.1736 38.1999Z" fill="#E6FB04"/>
<path d="M54.2762 32.1051L55.5166 31.335L61.6354 41.1899L63.1286 26.6086L64.267 25.9018L71.6518 37.7956L70.4115 38.5658L64.3032 28.7278L62.7994 43.2922L61.661 43.999L54.2762 32.1051Z" fill="#E6FB04"/>
<path d="M89.195 15.6211L93.2138 29.0319L91.8344 29.4452L90.1695 23.8893C88.901 24.9515 87.5835 25.6873 86.2168 26.0968C84.6458 26.5676 83.3049 26.5519 82.194 26.0496C81.0958 25.5436 80.34 24.6008 79.9267 23.2214L78.6005 18.7959L79.999 18.3768L81.2793 22.6491C81.5893 23.6836 82.1561 24.3907 82.9798 24.7702C83.8034 25.1498 84.8027 25.1635 85.9778 24.8114C87.3188 24.4095 88.5898 23.6807 89.7906 22.6249L87.8156 16.0344L89.195 15.6211Z" fill="#E6FB04"/>
<path d="M109.758 25.0184L109.901 26.2904L100.063 27.3948L98.5013 13.4821L108.041 12.4112L108.184 13.6832L100.115 14.5891L100.67 19.538L107.865 18.7303L108.006 19.9825L100.811 20.7901L101.391 25.9577L109.758 25.0184ZM101.344 11.553C101.105 11.5798 100.891 11.5233 100.701 11.3837C100.524 11.2425 100.422 11.0461 100.393 10.7943C100.366 10.5558 100.424 10.3481 100.565 10.1713C100.718 9.9797 100.913 9.87052 101.152 9.84375C101.377 9.81846 101.586 9.88228 101.777 10.0352C101.967 10.1749 102.076 10.3639 102.103 10.6024C102.129 10.8409 102.066 11.056 101.913 11.2476C101.772 11.4244 101.582 11.5262 101.344 11.553ZM104.882 11.1559C104.643 11.1827 104.429 11.1262 104.239 10.9865C104.06 10.8321 103.958 10.6357 103.931 10.3972C103.904 10.1587 103.968 9.95027 104.122 9.77193C104.275 9.58034 104.464 9.4719 104.69 9.44662C104.928 9.41985 105.137 9.48366 105.315 9.63807C105.505 9.77773 105.614 9.96681 105.64 10.2053C105.669 10.4571 105.605 10.6721 105.451 10.8505C105.31 11.0273 105.12 11.1291 104.882 11.1559Z" fill="#E6FB04"/>
<path d="M139.35 21.6958C140.189 22.1362 140.789 22.71 141.151 23.4171C141.525 24.1273 141.611 24.8902 141.41 25.7058C141.215 26.4955 140.798 27.1274 140.16 27.6015C139.521 28.0756 138.754 28.3739 137.858 28.4964C136.966 28.6059 136.041 28.5425 135.083 28.3062C134.177 28.0826 133.319 27.7199 132.509 27.218C131.715 26.7063 131.04 26.0729 130.485 25.3179L131.263 24.4181C131.734 25.0699 132.318 25.6259 133.015 26.0862C133.714 26.5335 134.453 26.8529 135.229 27.0445C135.967 27.2265 136.676 27.2777 137.355 27.198C138.033 27.1182 138.607 26.9095 139.075 26.5717C139.559 26.2241 139.874 25.7526 140.021 25.1572C140.216 24.3675 140.055 23.6824 139.539 23.1019C139.023 22.5215 138.202 22.0923 137.076 21.8145L134.163 21.096L134.451 19.9309L137.286 20.6303C138.243 20.8666 139.037 20.8495 139.667 20.5792C140.313 20.299 140.725 19.7965 140.904 19.0716C141.102 18.269 140.914 17.5565 140.34 16.9342C139.768 16.2989 138.965 15.8535 137.929 15.598C137.282 15.4384 136.605 15.3742 135.896 15.4055C135.192 15.4239 134.495 15.5473 133.807 15.7759L133.614 14.4716C135.158 14.0011 136.713 13.9591 138.28 14.3455C139.199 14.5722 140.003 14.9286 140.694 15.4148C141.384 15.9009 141.881 16.4766 142.184 17.1418C142.499 17.8102 142.565 18.5199 142.379 19.2707C142.201 19.9956 141.845 20.574 141.313 21.0057C140.784 21.4246 140.13 21.6546 139.35 21.6958Z" fill="#E6FB04"/>
<path d="M156.667 27.8826C157.475 28.4612 157.991 29.1215 158.215 29.8635C158.445 30.5933 158.37 31.3845 157.991 32.2372C157.497 33.3457 156.722 34.0221 155.664 34.2666C154.619 34.5164 153.335 34.3025 151.812 33.6247L146.148 31.1034L151.842 18.3133L157.159 20.6801C158.523 21.2873 159.464 22.0419 159.982 22.9439C160.5 23.8458 160.523 24.8266 160.051 25.8864C159.731 26.6051 159.278 27.1328 158.69 27.4695C158.108 27.7941 157.433 27.9318 156.667 27.8826ZM150.597 24.6991L154.507 26.4396C155.494 26.8788 156.339 27.014 157.041 26.8452C157.756 26.6818 158.284 26.2164 158.626 25.449C158.968 24.6816 158.96 23.9776 158.603 23.337C158.258 22.7019 157.592 22.1647 156.606 21.7256L152.695 19.985L150.597 24.6991ZM152.292 32.5467C154.497 33.5281 155.965 33.1966 156.697 31.5521C157.413 29.9442 156.669 28.6496 154.464 27.6682L150.134 25.7406L147.962 30.6191L152.292 32.5467Z" fill="#E6FB04"/>
<path d="M166.478 41.8609C165.351 41.0534 164.505 40.0704 163.941 38.9118C163.395 37.7502 163.177 36.544 163.285 35.2933C163.405 34.0504 163.857 32.8816 164.641 31.7868C165.425 30.692 166.386 29.8881 167.525 29.375C168.674 28.8697 169.882 28.6938 171.15 28.8474C172.436 28.9979 173.643 29.4769 174.77 30.2844C175.898 31.0919 176.733 32.0672 177.275 33.2103C177.828 34.3611 178.047 35.5672 177.931 36.8288C177.822 38.0794 177.376 39.2522 176.591 40.347C175.807 41.4417 174.837 42.2472 173.68 42.7633C172.53 43.2686 171.322 43.4445 170.054 43.2909C168.797 43.1451 167.605 42.6684 166.478 41.8609ZM167.247 40.7878C168.146 41.4323 169.103 41.8141 170.117 41.9332C171.138 42.0415 172.111 41.8855 173.035 41.4652C173.967 41.034 174.752 40.3739 175.388 39.4851C176.025 38.5963 176.393 37.6466 176.494 36.6362C176.602 35.6149 176.437 34.6436 175.998 33.7224C175.567 32.7903 174.901 32.002 174.002 31.3575C173.102 30.7131 172.136 30.3328 171.104 30.2168C170.091 30.0976 169.112 30.2498 168.169 30.6732C167.245 31.0935 166.465 31.7481 165.828 32.637C165.191 33.5258 164.819 34.4809 164.71 35.5021C164.621 36.5204 164.791 37.4955 165.223 38.4276C165.672 39.3567 166.347 40.1434 167.247 40.7878Z" fill="#E6FB04"/>
<path d="M195.394 49.1026L185.004 58.4859L184.025 57.4024L188.819 53.0726L182.948 46.5713L178.154 50.9011L177.162 49.8027L187.552 40.4194L188.544 41.5177L183.913 45.7L189.784 52.2013L194.415 48.019L195.394 49.1026Z" fill="#E6FB04"/>
<path d="M201.809 57.1073L202.538 58.3724L192.486 64.1618L207.01 66.1368L207.679 67.298L195.547 74.2851L194.818 73.0199L204.853 67.2406L190.346 65.2556L189.678 64.0944L201.809 57.1073Z" fill="#E6FB04"/>
<path d="M204.862 95.965L203.627 96.2998L201.037 86.7444L214.55 83.0826L217.061 92.3484L215.825 92.6832L213.701 84.8458L208.895 86.1484L210.788 93.1364L209.572 93.4659L207.679 86.478L202.66 87.8381L204.862 95.965Z" fill="#E6FB04"/>
<path d="M205.157 107.4C205.034 106.019 205.228 104.743 205.74 103.573C206.253 102.417 207.019 101.472 208.038 100.739C209.071 100.018 210.259 99.5975 211.6 99.4782C212.942 99.3589 214.178 99.5635 215.309 100.092C216.455 100.633 217.383 101.434 218.093 102.495C218.803 103.556 219.22 104.777 219.343 106.159C219.435 107.195 219.347 108.166 219.08 109.073C218.812 109.981 218.374 110.769 217.764 111.439L216.744 110.586C217.75 109.399 218.179 107.976 218.031 106.315C217.933 105.213 217.592 104.233 217.007 103.375C216.422 102.516 215.668 101.867 214.745 101.427C213.824 101.001 212.819 100.836 211.73 100.932C210.641 101.029 209.68 101.369 208.849 101.952C208.018 102.548 207.391 103.32 206.966 104.268C206.542 105.216 206.379 106.241 206.477 107.343C206.626 109.016 207.306 110.341 208.517 111.318L207.664 112.337C206.946 111.786 206.368 111.081 205.93 110.223C205.507 109.377 205.249 108.436 205.157 107.4Z" fill="#E6FB04"/>
</svg>
