<svg width="36" height="36" viewBox="0 0 36 36" fill="none" xmlns="http://www.w3.org/2000/svg">
<path d="M26.8475 22.4732L23.9634 24.098C23.6173 24.2929 23.2169 24.3691 22.8234 24.3151C22.4299 24.261 22.0649 24.0797 21.7841 23.7987L12.1579 14.1725C11.8771 13.8916 11.6959 13.5266 11.6419 13.1332C11.5879 12.7397 11.664 12.3394 11.8586 11.9932L13.4834 9.10906C13.7759 8.58998 13.8904 7.98942 13.8094 7.39913C13.7285 6.80885 13.4565 6.26129 13.0351 5.8401L8.71237 1.51734C8.45901 1.26385 8.15819 1.06277 7.82709 0.925579C7.496 0.788387 7.14111 0.717773 6.78272 0.717773C6.42432 0.717773 6.06944 0.788387 5.73834 0.925579C5.40725 1.06277 5.10642 1.26385 4.85306 1.51734L2.8903 3.47872C1.74254 4.62646 1.01144 6.12497 0.813251 7.73599C0.61506 9.34701 0.961157 10.978 1.79651 12.3698L2.78134 14.0111C7.81063 22.3931 14.9093 29.3422 23.3965 34.1918L23.591 34.3035C26.4903 35.9601 30.0724 35.4773 32.3938 33.1573L34.4434 31.1077C34.6969 30.8543 34.898 30.5535 35.0352 30.2224C35.1724 29.8913 35.243 29.5364 35.243 29.178C35.243 28.8196 35.1724 28.4648 35.0352 28.1337C34.898 27.8026 34.6969 27.5017 34.4434 27.2484L30.1179 22.9229C29.6968 22.5009 29.149 22.2285 28.5584 22.1473C27.9679 22.0661 27.3669 22.1806 26.8475 22.4732Z" fill="#2D2D2D"/>
</svg>
