<svg width="25" height="25" viewBox="0 0 25 25" fill="none" xmlns="http://www.w3.org/2000/svg">
<path d="M20.125 0.355957C21.3646 0.355957 22.4245 0.796061 23.3047 1.67627C24.1849 2.55648 24.625 3.61637 24.625 4.85596V19.856C24.625 21.0955 24.1849 22.1554 23.3047 23.0356C22.4245 23.9159 21.3646 24.356 20.125 24.356H17.1875V15.0591H20.2969L20.7656 11.4341H17.1875V9.12158C17.1875 8.53825 17.3099 8.10075 17.5547 7.80908C17.7995 7.51742 18.276 7.37158 18.9844 7.37158L20.8906 7.35596V4.12158C20.2344 4.02783 19.3073 3.98096 18.1094 3.98096C16.6927 3.98096 15.5599 4.39762 14.7109 5.23096C13.862 6.06429 13.4375 7.24137 13.4375 8.76221V11.4341H10.3125V15.0591H13.4375V24.356H5.125C3.88542 24.356 2.82552 23.9159 1.94531 23.0356C1.0651 22.1554 0.625 21.0955 0.625 19.856V4.85596C0.625 3.61637 1.0651 2.55648 1.94531 1.67627C2.82552 0.796061 3.88542 0.355957 5.125 0.355957H20.125Z" fill="white"/>
</svg>
