<svg width="526" height="526" viewBox="0 0 526 526" fill="none" xmlns="http://www.w3.org/2000/svg">
<path d="M496.421 273.573C496.519 271.616 497.037 269.866 497.974 268.325C498.929 266.803 500.184 265.632 501.739 264.813C503.313 263.995 505.05 263.634 506.952 263.729C508.854 263.825 510.537 264.358 512.002 265.328C513.486 266.3 514.617 267.6 515.395 269.227C516.192 270.856 516.541 272.649 516.442 274.607C516.366 276.135 516.035 277.521 515.449 278.762C514.882 280.005 514.073 281.048 513.021 281.892L511.35 279.986C512.972 278.591 513.838 276.793 513.948 274.594C514.021 273.139 513.761 271.809 513.167 270.601C512.574 269.394 511.716 268.426 510.594 267.697C509.489 266.987 508.228 266.597 506.812 266.526C505.395 266.454 504.092 266.716 502.903 267.311C501.732 267.925 500.791 268.803 500.08 269.944C499.368 271.086 498.976 272.384 498.903 273.838C498.793 276.019 499.484 277.895 500.975 279.465L499.122 281.194C498.161 280.249 497.451 279.12 496.994 277.807C496.535 276.514 496.344 275.102 496.421 273.573Z" fill="black"/>
<path d="M503.101 297.097L503.712 293.055L495.185 291.764L495.596 289.051L514.975 291.984L514.565 294.697L506.148 293.423L505.528 297.521L513.023 304.885L512.575 307.847L504.237 299.506L493.145 305.247L493.623 302.091L503.101 297.097Z" fill="black"/>
<path d="M510.857 317.266L510.142 319.945L495.533 316.045L507.152 331.144L506.488 333.633L487.551 328.579L488.259 325.927L502.84 329.82L491.256 314.7L491.92 312.212L510.857 317.266Z" fill="black"/>
<path d="M479.496 357.937L473.259 355.435L474.229 353.018L478.205 354.613L484.209 339.644L480.243 338.023L481.212 335.607L487.439 338.134L487.085 339.018C486.695 340.189 487.273 341.356 488.818 342.519C490.38 343.688 492.726 344.961 495.854 346.337L501.629 348.864L496.5 361.65L480.57 355.26L479.496 357.937ZM494.703 348.53C492.174 347.415 490.135 346.355 488.586 345.352C487.031 344.366 486.075 343.39 485.719 342.422L481.602 352.687L495.271 358.17L498.471 350.192L494.703 348.53Z" fill="black"/>
<path d="M478.169 374.72L480.09 371.112L472.478 367.058L473.768 364.636L491.068 373.849L489.778 376.271L482.265 372.27L480.318 375.928L484.935 385.366L483.527 388.01L478.439 377.37L466.069 379.094L467.569 376.277L478.169 374.72Z" fill="black"/>
<path d="M459.606 398.331L465.421 389.69L462.559 385.165L464.169 382.773L475.475 401.079L473.927 403.379L452.695 399.824L454.337 397.384L459.606 398.331ZM462.011 398.769L472.339 400.623L466.732 391.753L462.011 398.769Z" fill="black"/>
<path d="M436.292 423.526L434.472 421.907L443.836 411.386L445.258 412.652L445.705 423.732C445.756 425.078 445.922 426.099 446.2 426.797C446.493 427.507 446.897 428.092 447.413 428.551C448.18 429.234 449.015 429.489 449.917 429.318C450.821 429.172 451.719 428.598 452.613 427.594C454.052 425.976 454.633 424.257 454.355 422.435L456.855 422.111C457.044 423.303 456.924 424.533 456.495 425.801C456.054 427.083 455.325 428.295 454.307 429.439C452.942 430.973 451.486 431.864 449.941 432.113C448.409 432.374 447.016 431.946 445.761 430.829C444.98 430.134 444.39 429.309 443.99 428.354C443.591 427.398 443.361 426.057 443.3 424.328L442.975 416.017L436.292 423.526Z" fill="black"/>
<path d="M424.479 431.679C425.606 430.616 426.88 429.953 428.301 429.69C429.72 429.454 431.2 429.649 432.74 430.275C434.28 430.901 435.761 431.967 437.183 433.474C438.605 434.981 439.584 436.522 440.119 438.096C440.654 439.669 440.756 441.151 440.425 442.541C440.094 443.958 439.364 445.198 438.237 446.261C437.124 447.311 435.857 447.955 434.438 448.191C433.017 448.453 431.537 448.271 429.997 447.646C428.457 447.02 426.976 445.953 425.554 444.446C424.132 442.939 423.154 441.399 422.618 439.825C422.083 438.251 421.981 436.756 422.313 435.34C422.644 433.95 423.366 432.729 424.479 431.679ZM426.189 433.491C425.049 434.568 424.581 435.894 424.786 437.472C424.978 439.062 425.912 440.746 427.591 442.525C429.269 444.303 430.896 445.335 432.472 445.618C434.035 445.914 435.387 445.525 436.527 444.448C437.681 443.36 438.163 442.02 437.971 440.43C437.766 438.853 436.825 437.175 435.146 435.396C433.468 433.617 431.848 432.58 430.285 432.283C428.709 432 427.344 432.403 426.189 433.491Z" fill="black"/>
<path d="M416.333 451.485C417.42 450.663 418.597 450.394 419.864 450.677C421.131 450.96 422.242 451.734 423.199 453C424.155 454.266 424.597 455.546 424.523 456.842C424.45 458.138 423.869 459.197 422.782 460.018C421.695 460.84 420.525 461.104 419.274 460.809C418.018 460.541 416.907 459.767 415.939 458.486C414.971 457.206 414.524 455.917 414.597 454.622C414.668 453.352 415.246 452.306 416.333 451.485ZM413.254 467.008L411.534 468.308L410.395 444.602L412.115 443.302L413.254 467.008ZM417.296 452.758C416.61 453.276 416.271 453.942 416.278 454.755C416.296 455.584 416.659 456.468 417.368 457.406C418.077 458.344 418.823 458.928 419.604 459.156C420.396 459.4 421.135 459.263 421.82 458.745C422.49 458.238 422.823 457.565 422.82 456.725C422.802 455.897 422.445 455.02 421.747 454.097C421.049 453.174 420.304 452.59 419.512 452.347C418.704 452.115 417.966 452.252 417.296 452.758ZM400.866 451.592C401.954 450.77 403.125 450.493 404.38 450.761C405.632 451.055 406.742 451.843 407.71 453.123C408.677 454.404 409.126 455.679 409.056 456.949C408.983 458.245 408.402 459.303 407.315 460.125C406.228 460.947 405.051 461.216 403.784 460.933C402.518 460.65 401.406 459.876 400.45 458.61C399.493 457.344 399.051 456.063 399.125 454.768C399.199 453.472 399.779 452.413 400.866 451.592ZM401.829 452.865C401.158 453.371 400.832 454.039 400.85 454.868C400.853 455.708 401.204 456.589 401.902 457.513C402.599 458.436 403.352 459.014 404.159 459.246C404.951 459.49 405.683 459.358 406.353 458.852C407.038 458.334 407.371 457.661 407.353 456.832C407.347 456.018 406.989 455.142 406.28 454.204C405.571 453.266 404.82 452.675 404.028 452.431C403.247 452.203 402.514 452.347 401.829 452.865Z" fill="black"/>
<path d="M375.409 467.744C377.129 466.804 378.89 466.33 380.695 466.322C382.491 466.339 384.145 466.796 385.657 467.693C387.177 468.606 388.394 469.898 389.308 471.568C390.221 473.239 390.648 474.953 390.587 476.709C390.535 478.482 390.019 480.126 389.039 481.64C388.068 483.171 386.723 484.407 385.003 485.347C383.66 486.082 382.306 486.524 380.942 486.675C379.586 486.841 378.274 486.697 377.004 486.243L377.754 483.822C379.792 484.474 381.776 484.271 383.709 483.215C384.987 482.516 385.984 481.598 386.703 480.461C387.421 479.323 387.797 478.086 387.832 476.748C387.859 475.435 387.532 474.157 386.851 472.912C386.171 471.667 385.266 470.694 384.138 469.992C383.002 469.315 381.761 468.972 380.416 468.963C379.07 468.954 377.759 469.299 376.482 469.998C374.565 471.045 373.328 472.615 372.77 474.708L370.327 474.033C370.63 472.719 371.221 471.523 372.1 470.447C372.963 469.379 374.066 468.478 375.409 467.744Z" fill="black"/>
<path d="M358.461 485.883L362.232 484.305L358.902 476.35L361.434 475.29L369.001 493.37L366.47 494.43L363.183 486.578L359.361 488.178L356.965 498.408L354.201 499.565L356.994 488.106L346.324 481.615L349.268 480.382L358.461 485.883Z" fill="black"/>
<path d="M345.397 502.943L342.738 503.729L338.453 489.229L331.622 507.015L329.151 507.745L323.596 488.948L326.228 488.171L330.505 502.644L337.371 484.877L339.841 484.147L345.397 502.943Z" fill="black"/>
<path d="M294.734 497.305L293.602 490.682L296.168 490.243L296.89 494.465L312.788 491.747L312.093 487.52L314.66 487.081L315.765 493.71L314.827 493.87C313.625 494.151 312.933 495.254 312.751 497.179C312.572 499.123 312.715 501.787 313.18 505.173L314.049 511.416L300.47 513.738L297.577 496.819L294.734 497.305ZM310.709 505.34C310.335 502.601 310.171 500.309 310.215 498.465C310.241 496.624 310.573 495.298 311.211 494.488L300.309 496.352L302.792 510.87L311.265 509.421L310.709 505.34Z" fill="black"/>
<path d="M279.739 504.923L283.819 504.671L283.287 496.064L286.026 495.894L287.235 515.457L284.497 515.626L283.971 507.131L279.835 507.386L274.212 516.262L271.222 516.447L277.623 506.541L269.677 496.905L272.863 496.708L279.739 504.923Z" fill="black"/>
<path d="M248.781 501.407L259.185 501.889L261.566 497.094L264.447 497.228L254.673 516.396L251.904 516.268L243.917 496.276L246.854 496.413L248.781 501.407ZM249.656 503.69L253.435 513.479L258.103 504.082L249.656 503.69Z" fill="black"/>
<path d="M215.442 494.682L215.871 492.285L229.735 494.764L229.399 496.639L220.188 502.813C219.068 503.561 218.284 504.236 217.835 504.839C217.383 505.459 217.096 506.11 216.974 506.789C216.793 507.8 217.012 508.645 217.63 509.324C218.226 510.019 219.186 510.485 220.509 510.721C222.64 511.102 224.41 510.698 225.817 509.509L227.401 511.47C226.483 512.254 225.372 512.795 224.067 513.093C222.744 513.387 221.329 513.399 219.822 513.13C217.801 512.768 216.28 511.994 215.26 510.806C214.236 509.637 213.873 508.226 214.168 506.572C214.352 505.543 214.747 504.609 215.352 503.769C215.958 502.929 216.981 502.031 218.423 501.075L225.337 496.452L215.442 494.682Z" fill="black"/>
<path d="M202.232 488.809C203.726 489.22 204.954 489.965 205.916 491.042C206.855 492.133 207.457 493.499 207.722 495.14C207.987 496.781 207.844 498.6 207.295 500.598C206.745 502.596 205.937 504.232 204.87 505.507C203.803 506.782 202.59 507.639 201.23 508.078C199.847 508.53 198.409 508.55 196.915 508.139C195.439 507.733 194.232 506.985 193.293 505.894C192.331 504.817 191.717 503.457 191.452 501.816C191.188 500.175 191.33 498.356 191.879 496.358C192.429 494.36 193.237 492.724 194.304 491.449C195.371 490.175 196.596 489.311 197.979 488.859C199.338 488.42 200.756 488.403 202.232 488.809ZM201.571 491.212C200.059 490.796 198.683 491.086 197.441 492.08C196.182 493.069 195.228 494.743 194.579 497.101C193.931 499.458 193.894 501.384 194.471 502.879C195.029 504.368 196.064 505.321 197.576 505.737C199.106 506.157 200.5 505.873 201.76 504.884C203.001 503.889 203.947 502.213 204.595 499.856C205.244 497.498 205.289 495.574 204.73 494.085C204.154 492.591 203.101 491.633 201.571 491.212Z" fill="black"/>
<path d="M181.222 492.187C182.488 492.69 183.329 493.556 183.745 494.785C184.161 496.014 184.077 497.367 183.492 498.841C182.906 500.316 182.041 501.358 180.895 501.968C179.75 502.578 178.544 502.632 177.277 502.129C176.01 501.627 175.178 500.764 174.779 499.542C174.356 498.33 174.441 496.978 175.033 495.485C175.625 493.993 176.494 492.942 177.639 492.332C178.761 491.733 179.955 491.685 181.222 492.187ZM166.356 497.615L164.352 496.82L184.021 483.538L186.025 484.333L166.356 497.615ZM180.633 493.671C179.835 493.354 179.09 493.41 178.398 493.838C177.699 494.284 177.132 495.053 176.699 496.146C176.265 497.239 176.153 498.179 176.363 498.965C176.567 499.769 177.067 500.329 177.866 500.646C178.646 500.956 179.395 500.891 180.111 500.452C180.81 500.007 181.373 499.246 181.8 498.17C182.227 497.094 182.338 496.155 182.135 495.351C181.914 494.541 181.414 493.98 180.633 493.671ZM173.099 479.024C174.366 479.527 175.211 480.384 175.634 481.596C176.032 482.818 175.935 484.176 175.343 485.668C174.751 487.16 173.895 488.206 172.773 488.805C171.628 489.415 170.422 489.469 169.155 488.966C167.888 488.464 167.047 487.598 166.631 486.368C166.215 485.139 166.3 483.787 166.885 482.312C167.47 480.837 168.335 479.795 169.481 479.185C170.627 478.575 171.833 478.521 173.099 479.024ZM172.511 480.507C171.73 480.198 170.99 480.266 170.291 480.711C169.575 481.15 169.003 481.907 168.577 482.983C168.15 484.059 168.047 485.002 168.267 485.812C168.471 486.616 168.963 487.173 169.743 487.483C170.542 487.799 171.29 487.735 171.989 487.289C172.681 486.861 173.244 486.1 173.678 485.007C174.111 483.914 174.227 482.966 174.023 482.162C173.813 481.376 173.309 480.824 172.511 480.507Z" fill="black"/>
<path d="M146.086 465.64C147.78 466.624 149.098 467.886 150.039 469.425C150.954 470.972 151.419 472.623 151.435 474.381C151.441 476.154 150.966 477.864 150.009 479.511C149.053 481.157 147.808 482.409 146.273 483.267C144.73 484.14 143.056 484.55 141.253 484.495C139.44 484.457 137.687 483.946 135.992 482.961C134.668 482.192 133.589 481.263 132.754 480.174C131.909 479.1 131.353 477.903 131.084 476.581L133.544 475.97C134.041 478.05 135.242 479.644 137.147 480.75C138.406 481.481 139.708 481.86 141.053 481.886C142.398 481.911 143.652 481.593 144.814 480.929C145.951 480.273 146.875 479.331 147.588 478.105C148.301 476.878 148.665 475.6 148.681 474.271C148.672 472.949 148.323 471.71 147.634 470.554C146.946 469.399 145.972 468.455 144.713 467.724C142.824 466.627 140.841 466.382 138.762 466.987L138.074 464.548C139.355 464.126 140.684 464.013 142.06 464.208C143.42 464.394 144.762 464.871 146.086 465.64Z" fill="black"/>
<path d="M121.932 460.651L125.246 463.044L130.294 456.051L132.519 457.658L121.047 473.55L118.822 471.944L123.804 465.042L120.444 462.616L110.468 465.913L108.038 464.159L119.27 460.56L119.238 448.07L121.826 449.939L121.932 460.651Z" fill="black"/>
<path d="M100.63 458.404L98.5723 456.546L108.706 445.325L89.9693 448.777L88.0575 447.05L101.194 432.504L103.231 434.343L93.1154 445.544L111.854 442.131L113.766 443.858L100.63 458.404Z" fill="black"/>
<path d="M78.9109 412.107L83.9792 407.695L85.689 409.659L82.458 412.472L93.0482 424.636L96.2976 421.844L98.0075 423.808L92.9208 428.199L92.2956 427.481C91.4304 426.601 90.1283 426.584 88.3895 427.429C86.6366 428.287 84.4352 429.795 81.7853 431.954L76.905 435.943L67.8593 425.553L80.8046 414.282L78.9109 412.107ZM80.3574 429.93C82.5023 428.186 84.374 426.854 85.9726 425.932C87.5588 424.997 88.8637 424.591 89.8871 424.715L82.6248 416.373L71.5167 426.044L77.1611 432.527L80.3574 429.93Z" fill="black"/>
<path d="M64.6556 403.415L66.9996 406.764L74.0652 401.819L75.6385 404.068L59.5804 415.306L58.007 413.058L64.9808 408.177L62.6048 404.782L52.099 404.616L50.3812 402.161L62.1715 402.454L66.2466 390.647L68.0768 393.263L64.6556 403.415Z" fill="black"/>
<path d="M51.886 375.867L56.917 384.987L62.2489 384.509L63.6419 387.034L42.1927 388.729L40.8538 386.302L53.715 369.038L55.1351 371.612L51.886 375.867ZM50.398 377.807L44.0308 386.148L54.4823 385.211L50.398 377.807Z" fill="black"/>
<path d="M40.3421 344.361L42.6097 343.471L47.7547 356.581L45.9823 357.277L35.8993 352.661C34.6759 352.099 33.6901 351.784 32.9417 351.716C32.1761 351.656 31.4718 351.752 30.8288 352.004C29.8731 352.379 29.2676 353.008 29.0122 353.89C28.7327 354.762 28.8384 355.823 29.3294 357.074C30.1204 359.09 31.391 360.386 33.1412 360.963L32.299 363.339C31.1506 362.967 30.108 362.303 29.1714 361.347C28.228 360.374 27.4767 359.175 26.9176 357.75C26.1675 355.839 26.0313 354.138 26.509 352.647C26.9693 351.163 27.9814 350.114 29.5453 349.5C30.5184 349.118 31.5212 348.965 32.5537 349.041C33.5862 349.117 34.8869 349.519 36.4559 350.247L44.0142 353.718L40.3421 344.361Z" fill="black"/>
<path d="M38.441 330.14C38.8745 331.627 38.8846 333.063 38.4714 334.447C38.0351 335.819 37.1877 337.048 35.9294 338.134C34.671 339.22 33.0472 340.053 31.058 340.633C29.0687 341.212 27.2517 341.382 25.6068 341.142C23.962 340.902 22.596 340.318 21.5091 339.391C20.399 338.45 19.6272 337.236 19.1937 335.749C18.7654 334.28 18.7694 332.859 19.2058 331.487C19.619 330.103 20.4547 328.868 21.7131 327.782C22.9715 326.696 24.5953 325.863 26.5845 325.283C28.5738 324.703 30.3908 324.533 32.0357 324.774C33.6805 325.014 35.058 325.604 36.1681 326.544C37.2551 327.472 38.0127 328.67 38.441 330.14ZM36.0485 330.837C35.6098 329.332 34.6415 328.311 33.1438 327.775C31.6409 327.222 29.7156 327.287 27.368 327.971C25.0203 328.655 23.3614 329.635 22.3912 330.909C21.4158 332.166 21.1474 333.546 21.5862 335.052C22.0301 336.575 23.0035 337.614 24.5065 338.167C26.0042 338.703 27.9269 338.629 30.2745 337.944C32.6222 337.26 34.2837 336.29 35.2591 335.033C36.2293 333.759 36.4924 332.36 36.0485 330.837Z" fill="black"/>
<path d="M24.4651 313.68C24.6999 315.023 24.4024 316.193 23.5726 317.191C22.7428 318.188 21.5465 318.824 19.9835 319.097C18.4206 319.371 17.0795 319.179 15.9602 318.522C14.8409 317.865 14.1639 316.866 13.9291 315.523C13.6943 314.181 13.9934 313.02 14.8264 312.041C15.6379 311.046 16.8342 310.41 18.4155 310.134C19.9969 309.857 21.3472 310.047 22.4664 310.704C23.5641 311.346 24.2303 312.338 24.4651 313.68ZM12.0586 303.855L11.6872 301.731L33.3001 311.538L33.6716 313.662L12.0586 303.855ZM22.893 313.955C22.745 313.109 22.3075 312.504 21.5803 312.138C20.8347 311.776 19.8827 311.696 18.7243 311.899C17.5659 312.101 16.7067 312.498 16.1468 313.089C15.5685 313.683 15.3533 314.402 15.5012 315.248C15.646 316.076 16.0927 316.68 16.8415 317.06C17.5871 317.423 18.5299 317.504 19.6699 317.305C20.81 317.105 21.6691 316.709 22.2474 316.115C22.8226 315.503 23.0377 314.783 22.893 313.955ZM31.4297 299.87C31.6644 301.212 31.3761 302.38 30.5647 303.375C29.7317 304.355 28.5245 304.983 26.9432 305.259C25.3619 305.536 24.0224 305.353 22.9247 304.712C21.8055 304.055 21.1284 303.055 20.8936 301.713C20.6588 300.37 20.9563 299.2 21.7861 298.202C22.6159 297.204 23.8123 296.569 25.3752 296.295C26.9382 296.022 28.2793 296.214 29.3986 296.871C30.5178 297.528 31.1949 298.527 31.4297 299.87ZM29.8575 300.145C29.7128 299.317 29.2676 298.722 28.5221 298.36C27.7733 297.979 26.8289 297.889 25.6888 298.088C24.5488 298.288 23.6913 298.693 23.1161 299.306C22.5378 299.9 22.321 300.61 22.4658 301.438C22.6137 302.283 23.0605 302.887 23.8061 303.25C24.5332 303.615 25.476 303.697 26.6344 303.494C27.7929 303.291 28.6612 302.893 29.2395 302.299C29.7995 301.709 30.0055 300.99 29.8575 300.145Z" fill="black"/>
<path d="M28.6777 270.037C28.7306 271.996 28.3494 273.78 27.5339 275.39C26.6992 276.981 25.5383 278.244 24.051 279.181C22.5451 280.118 20.8405 280.612 18.9372 280.664C17.0339 280.715 15.3144 280.313 13.7788 279.459C12.2245 278.604 10.9967 277.396 10.0955 275.833C9.17562 274.27 8.6892 272.51 8.63626 270.55C8.59491 269.02 8.81832 267.614 9.30651 266.331C9.77603 265.048 10.5025 263.945 11.4859 263.023L13.2985 264.794C11.7895 266.31 11.0648 268.169 11.1243 270.371C11.1637 271.826 11.5258 273.133 12.2106 274.291C12.8955 275.449 13.8254 276.348 15.0005 276.989C16.1564 277.611 17.4434 277.903 18.8616 277.865C20.2797 277.826 21.5584 277.465 22.6977 276.781C23.8178 276.078 24.6885 275.13 25.3098 273.937C25.9312 272.744 26.2222 271.42 26.1828 269.964C26.1238 267.781 25.2904 265.964 23.6827 264.514L25.3969 262.647C26.4287 263.515 27.2232 264.586 27.7805 265.859C28.3373 267.114 28.6363 268.507 28.6777 270.037Z" fill="black"/>
<path d="M20.2637 245.982L19.9486 250.057L28.547 250.722L28.3355 253.458L8.79382 251.947L9.00529 249.211L17.492 249.867L17.8113 245.736L9.7994 238.938L10.0303 235.951L18.9546 243.662L29.5979 237.127L29.3519 240.309L20.2637 245.982Z" fill="black"/>
<path d="M11.0604 226.204L11.5797 223.481L26.432 226.314L13.7516 212.095L14.2343 209.564L33.4872 213.236L32.9731 215.932L18.1483 213.104L30.796 227.346L30.3133 229.876L11.0604 226.204Z" fill="black"/>
<path d="M39.1569 183.939L45.5642 185.966L44.7791 188.448L40.6944 187.157L35.8318 202.534L39.908 203.853L39.1229 206.335L32.724 204.283L33.0111 203.375C33.3113 202.178 32.6475 201.057 31.0197 200.014C29.374 198.965 26.9396 197.872 23.7163 196.736L17.7686 194.649L21.9221 181.514L38.2874 186.689L39.1569 183.939ZM24.6995 194.462C27.3055 195.384 29.4182 196.287 31.0376 197.171C32.6628 198.037 33.6892 198.94 34.117 199.878L37.4516 189.332L23.409 184.892L20.8172 193.088L24.6995 194.462Z" fill="black"/>
<path d="M39.2487 166.983L37.6002 170.724L45.492 174.202L44.3854 176.713L26.4497 168.809L27.5562 166.298L35.3455 169.73L37.0165 165.938L31.7114 156.869L32.9195 154.127L38.7827 164.36L50.9907 161.723L49.7035 164.644L39.2487 166.983Z" fill="black"/>
<path d="M55.7745 142.419L50.6094 151.464L53.7954 155.766L52.3653 158.27L39.7463 140.843L41.1209 138.436L62.5567 140.423L61.0988 142.976L55.7745 142.419ZM53.3434 142.159L42.9068 141.068L49.1502 149.502L53.3434 142.159Z" fill="black"/>
<path d="M76.7566 115.935L78.6947 117.41L70.1624 128.616L68.6475 127.462L67.3558 116.448C67.2013 115.111 66.9585 114.105 66.6274 113.43C66.2814 112.745 65.8337 112.192 65.2842 111.774C64.4674 111.152 63.6157 110.961 62.7291 111.201C61.839 111.415 60.9868 112.056 60.1726 113.126C58.8608 114.848 58.4131 116.607 58.8293 118.402L56.3615 118.916C56.0826 117.742 56.1084 116.506 56.4389 115.21C56.7808 113.898 57.4153 112.633 58.3426 111.415C59.5866 109.782 60.9696 108.782 62.4918 108.416C63.9991 108.039 65.4211 108.359 66.7577 109.377C67.5894 110.01 68.2408 110.788 68.712 111.709C69.1831 112.631 69.5151 113.952 69.7079 115.67L70.6669 123.932L76.7566 115.935Z" fill="black"/>
<path d="M88.3103 106.385C87.2635 107.527 86.0413 108.28 84.6435 108.645C83.2446 108.984 81.7545 108.897 80.1731 108.384C78.5918 107.872 77.0373 106.916 75.5097 105.516C73.9821 104.116 72.8943 102.651 72.2461 101.12C71.598 99.5896 71.3885 98.119 71.6177 96.7085C71.8456 95.2717 72.483 93.9822 73.5297 92.8399C74.5639 91.7114 75.7804 90.9779 77.1793 90.6394C78.577 90.2746 80.0666 90.3483 81.648 90.8606C83.2293 91.3729 84.7838 92.329 86.3114 93.7289C87.839 95.1288 88.9268 96.5941 89.575 98.1248C90.2231 99.6555 90.4331 101.139 90.2052 102.576C89.976 103.987 89.3444 105.256 88.3103 106.385ZM86.473 104.701C87.5324 103.545 87.9026 102.188 87.5835 100.629C87.2771 99.0574 86.2225 97.4453 84.4197 95.7932C82.6168 94.1411 80.919 93.2309 79.3263 93.0626C77.7461 92.8805 76.4263 93.3675 75.367 94.5235C74.295 95.6933 73.9122 97.0642 74.2186 98.6363C74.5377 100.195 75.5986 101.8 77.4014 103.452C79.2043 105.104 80.8958 106.021 82.4759 106.203C84.0687 106.371 85.4011 105.871 86.473 104.701Z" fill="black"/>
<path d="M94.353 86.5441C93.3318 87.4463 92.1789 87.8048 90.8943 87.6195C89.6098 87.4343 88.4423 86.7471 87.3917 85.558C86.3412 84.369 85.8032 83.1256 85.7776 81.828C85.7521 80.5305 86.2499 79.4306 87.2712 78.5283C88.2924 77.6261 89.4382 77.2738 90.7088 77.4714C91.981 77.6427 93.1485 78.3299 94.2114 79.5329C95.2743 80.736 95.8185 81.9863 95.844 83.2839C95.8712 84.5551 95.3742 85.6419 94.353 86.5441ZM96.2375 70.8309L97.8532 69.4034L100.8 92.9535L99.1844 94.381L96.2375 70.8309ZM93.2963 85.348C93.9398 84.7795 94.2271 84.0898 94.1582 83.2788C94.077 82.4539 93.6471 81.6007 92.8685 80.7194C92.0898 79.8381 91.3024 79.3133 90.5061 79.145C89.6974 78.9628 88.9714 79.1559 88.3279 79.7244C87.6984 80.2806 87.4172 80.9773 87.4844 81.8146C87.5657 82.6396 87.9894 83.4857 88.7557 84.353C89.5219 85.2203 90.3094 85.7451 91.118 85.9274C91.9407 86.0973 92.6667 85.9042 93.2963 85.348ZM109.767 85.256C108.745 86.1582 107.599 86.5237 106.326 86.3524C105.056 86.1548 103.889 85.4545 102.826 84.2514C101.763 83.0484 101.218 81.8112 101.191 80.54C101.166 79.2424 101.664 78.1425 102.685 77.2403C103.706 76.338 104.859 75.9796 106.143 76.1648C107.428 76.3501 108.595 77.0372 109.646 78.2263C110.696 79.4154 111.235 80.6587 111.26 81.9563C111.286 83.2539 110.788 84.3538 109.767 85.256ZM108.71 84.06C109.339 83.5038 109.613 82.8132 109.532 81.9883C109.465 81.151 109.048 80.2987 108.282 79.4313C107.516 78.564 106.721 78.0454 105.899 77.8755C105.09 77.6932 104.371 77.8802 103.741 78.4363C103.098 79.0049 102.817 79.7016 102.898 80.5265C102.967 81.3375 103.391 82.1836 104.169 83.0649C104.948 83.9463 105.741 84.478 106.55 84.6603C107.346 84.8286 108.066 84.6285 108.71 84.06Z" fill="black"/>
<path d="M134.785 66.5108C133.139 67.575 131.417 68.1774 129.618 68.3179C127.825 68.4326 126.142 68.0984 124.568 67.3152C122.985 66.5164 121.676 65.3175 120.642 63.7187C119.608 62.1198 119.057 60.4423 118.989 58.6861C118.91 56.9142 119.304 55.237 120.17 53.6544C121.026 52.0561 122.277 50.7248 123.922 49.6605C125.208 48.8294 126.525 48.2887 127.875 48.0383C129.215 47.7723 130.534 47.8193 131.834 48.1792L131.264 50.6488C129.184 50.1485 127.219 50.4963 125.37 51.6924C124.147 52.483 123.219 53.4718 122.587 54.659C121.954 55.8462 121.669 57.1082 121.734 58.4449C121.803 59.7559 122.223 61.007 122.994 62.1983C123.764 63.3896 124.738 64.2938 125.915 64.9109C127.097 65.5022 128.36 65.7529 129.702 65.6629C131.044 65.573 132.327 65.1327 133.549 64.3421C135.383 63.1562 136.502 61.4995 136.904 59.3719L139.39 59.865C139.185 61.198 138.684 62.4336 137.886 63.5719C137.104 64.7 136.07 65.6796 134.785 66.5108Z" fill="black"/>
<path d="M149.027 47.8226L145.391 49.6904L149.331 57.3615L146.89 58.6153L137.935 41.1809L140.376 39.9272L144.265 47.4987L147.951 45.6053L149.541 35.2194L152.206 33.8505L150.317 45.492L161.461 51.1313L158.621 52.5897L149.027 47.8226Z" fill="black"/>
<path d="M161.203 29.4786L163.795 28.495L169.159 42.6312L174.632 24.382L177.041 23.4679L183.995 41.7927L181.43 42.7663L176.075 28.6563L170.566 46.8893L168.157 47.8033L161.203 29.4786Z" fill="black"/>
<path d="M211.463 31.3303L213.097 37.8486L210.572 38.4818L209.53 34.3264L193.886 38.2487L194.901 42.4109L192.375 43.0442L190.768 36.5191L191.691 36.2876C192.868 35.9156 193.474 34.7629 193.509 32.8297C193.539 30.8784 193.193 28.2324 192.471 24.8917L191.129 18.7332L204.492 15.3829L208.666 32.0317L211.463 31.3303ZM194.923 24.5369C195.504 27.2394 195.843 29.5119 195.939 31.3544C196.053 33.1925 195.824 34.5395 195.249 35.3956L205.977 32.7058L202.395 18.4199L194.058 20.5104L194.923 24.5369Z" fill="black"/>
<path d="M227.136 22.265L223.085 22.8145L224.245 31.3602L221.526 31.7291L218.891 12.307L221.61 11.9381L222.754 20.3729L226.861 19.8158L231.82 10.553L234.789 10.1502L229.129 20.4971L237.757 29.5272L234.594 29.9563L227.136 22.265Z" fill="black"/>
<path d="M257.153 23.4827L246.742 23.8043L244.738 28.7686L241.855 28.8576L250.122 8.99287L252.893 8.90727L262.397 28.223L259.459 28.3138L257.153 23.4827ZM256.104 21.274L251.582 11.8051L247.652 21.5351L256.104 21.274Z" fill="black"/>
<path d="M292.002 27.6554L291.749 30.0782L277.741 28.6148L277.939 26.7211L286.676 19.892C287.738 19.0645 288.471 18.3341 288.875 17.7006C289.281 17.0486 289.52 16.3792 289.592 15.6922C289.699 14.6711 289.419 13.8443 288.753 13.2116C288.108 12.5624 287.117 12.168 285.78 12.0283C283.626 11.8033 281.891 12.3352 280.574 13.624L278.852 11.7831C279.71 10.9343 280.779 10.3141 282.059 9.92223C283.357 9.53235 284.767 9.41693 286.29 9.57598C288.332 9.78934 289.905 10.451 291.009 11.5611C292.115 12.6526 292.581 14.0338 292.406 15.7047C292.297 16.7444 291.972 17.7051 291.429 18.5868C290.887 19.4685 289.931 20.4385 288.563 21.4968L282.004 26.6109L292.002 27.6554Z" fill="black"/>
<path d="M304.747 32.3119C303.226 32.0158 301.945 31.367 300.904 30.3656C299.885 29.3494 299.18 28.0332 298.791 26.4171C298.402 24.801 298.406 22.976 298.802 20.9422C299.198 18.9084 299.879 17.2154 300.846 15.8633C301.813 14.5111 302.958 13.5645 304.28 13.0232C305.625 12.4672 307.057 12.3373 308.578 12.6334C310.08 12.9259 311.341 13.5803 312.361 14.5965C313.402 15.5979 314.117 16.9067 314.506 18.5228C314.895 20.1389 314.891 21.9639 314.495 23.9977C314.099 26.0315 313.418 27.7245 312.451 29.0766C311.484 30.4287 310.328 31.3828 308.984 31.9388C307.662 32.48 306.249 32.6044 304.747 32.3119ZM305.223 29.8658C306.762 30.1655 308.113 29.7723 309.275 28.6865C310.456 27.6041 311.28 25.8628 311.747 23.4626C312.214 21.0623 312.104 19.1391 311.415 17.6929C310.745 16.2503 309.641 15.3791 308.102 15.0794C306.544 14.7762 305.175 15.1658 303.995 16.2481C302.832 17.334 302.018 19.077 301.55 21.4773C301.083 23.8776 301.184 25.799 301.854 27.2416C302.543 28.6878 303.665 29.5626 305.223 29.8658Z" fill="black"/>
<path d="M326.361 27.5064C325.061 27.1005 324.157 26.3002 323.65 25.1055C323.142 23.9109 323.125 22.5562 323.598 21.0416C324.07 19.527 324.855 18.4226 325.952 17.7284C327.048 17.0342 328.247 16.8901 329.548 17.296C330.849 17.702 331.744 18.4995 332.233 19.6886C332.746 20.8654 332.763 22.22 332.285 23.7525C331.806 25.2849 331.019 26.3983 329.922 27.0924C328.849 27.7744 327.662 27.9123 326.361 27.5064ZM340.777 20.9764L342.835 21.6187L324.22 36.3417L322.162 35.6994L340.777 20.9764ZM326.837 25.9829C327.657 26.2387 328.395 26.127 329.053 25.6479C329.717 25.151 330.224 24.3413 330.574 23.2187C330.924 22.096 330.965 21.1506 330.696 20.3824C330.433 19.5963 329.892 19.0754 329.072 18.8196C328.27 18.5693 327.529 18.6899 326.848 19.1812C326.184 19.6781 325.68 20.479 325.335 21.5838C324.99 22.6886 324.95 23.634 325.213 24.4201C325.494 25.2117 326.035 25.7326 326.837 25.9829ZM335.45 40.022C334.149 39.6161 333.242 38.8247 332.729 37.6479C332.24 36.4588 332.235 35.098 332.713 33.5656C333.191 32.0331 333.967 30.9259 335.04 30.244C336.136 29.5499 337.335 29.4057 338.636 29.8117C339.937 30.2176 340.841 31.0179 341.348 32.2126C341.855 33.4072 341.872 34.7619 341.4 36.2765C340.927 37.7911 340.142 38.8955 339.046 39.5897C337.949 40.2839 336.75 40.428 335.45 40.022ZM335.925 38.4985C336.727 38.7487 337.46 38.6254 338.123 38.1285C338.804 37.6372 339.317 36.8391 339.662 35.7343C340.007 34.6295 340.039 33.6813 339.758 32.8897C339.495 32.1036 338.962 31.5854 338.161 31.3352C337.341 31.0794 336.599 31.2 335.936 31.6969C335.278 32.176 334.774 32.9768 334.423 34.0994C334.073 35.222 334.029 36.1764 334.293 36.9624C334.561 37.7307 335.105 38.2427 335.925 38.4985Z" fill="black"/>
<path d="M362.428 50.83C360.662 49.98 359.25 48.8241 358.193 47.3623C357.16 45.8918 356.568 44.281 356.417 42.5301C356.273 40.7622 356.614 39.0205 357.44 37.3049C358.265 35.5892 359.41 34.2445 360.873 33.2706C362.344 32.2799 363.981 31.7418 365.783 31.6561C367.593 31.5537 369.381 31.9275 371.147 32.7774C372.526 33.4412 373.675 34.2839 374.592 35.3053C375.517 36.3099 376.165 37.4606 376.535 38.7575L374.13 39.5577C373.473 37.5221 372.152 36.0267 370.167 35.0715C368.855 34.4401 367.528 34.1637 366.185 34.2424C364.842 34.3211 363.617 34.7362 362.509 35.4876C361.427 36.2303 360.578 37.2408 359.963 38.5191C359.348 39.7975 359.083 41.0997 359.17 42.4259C359.282 43.7433 359.726 44.9514 360.502 46.0501C361.279 47.1488 362.323 48.0138 363.635 48.6453C365.603 49.5924 367.599 49.6833 369.625 48.918L370.5 51.2968C369.255 51.8165 367.94 52.0326 366.552 51.945C365.182 51.8655 363.807 51.4938 362.428 50.83Z" fill="black"/>
<path d="M387.367 54.1223L383.886 51.9787L379.364 59.322L377.028 57.8831L387.305 41.1938L389.642 42.6327L385.178 49.8806L388.707 52.0536L398.416 48.0358L400.967 49.6068L390.029 54.0186L390.975 66.4723L388.257 64.7985L387.367 54.1223Z" fill="black"/>
<path d="M408.955 54.77L411.142 56.4733L401.851 68.402L420.287 63.5964L422.32 65.1793L410.276 80.6424L408.111 78.9562L417.385 67.0497L398.944 71.8159L396.911 70.233L408.955 54.77Z" fill="black"/>
<path d="M433.872 99.034L429.155 103.82L427.301 101.992L430.308 98.9411L418.821 87.6201L415.794 90.6516L413.939 88.8237L418.676 84.0572L419.354 84.7255C420.284 85.5371 421.584 85.4551 423.253 84.4794C424.935 83.4904 427.015 81.8187 429.493 79.4643L434.055 75.1149L443.867 84.785L431.818 97.0096L433.872 99.034ZM431.071 81.3734C429.065 83.2755 427.301 84.7469 425.777 85.7876C424.267 86.8413 422.997 87.3455 421.967 87.3002L429.844 95.0638L440.182 84.5741L434.06 78.5402L431.071 81.3734Z" fill="black"/>
<path d="M449.493 107.404L446.911 104.235L440.224 109.681L438.491 107.554L453.687 95.1749L455.421 97.3023L448.821 102.678L451.438 105.891L461.928 105.291L463.821 107.614L452.04 108.182L448.837 120.253L446.821 117.779L449.493 107.404Z" fill="black"/>
<path d="M463.717 133.059L457.997 124.354L452.718 125.243L451.135 122.833L472.389 119.488L473.911 121.804L462.42 140.009L460.806 137.552L463.717 133.059ZM465.051 131.01L470.756 122.203L460.408 123.943L465.051 131.01Z" fill="black"/>
<path d="M477.956 164.061L475.761 165.117L469.653 152.426L471.368 151.601L481.767 155.452C483.029 155.922 484.036 156.162 484.787 156.174C485.555 156.177 486.25 156.029 486.873 155.729C487.798 155.284 488.355 154.612 488.544 153.713C488.758 152.823 488.573 151.773 487.99 150.561C487.051 148.61 485.687 147.413 483.899 146.968L484.562 144.536C485.735 144.821 486.824 145.405 487.829 146.289C488.843 147.189 489.681 148.329 490.345 149.708C491.235 151.558 491.498 153.244 491.133 154.767C490.784 156.281 489.853 157.402 488.339 158.131C487.397 158.584 486.409 158.811 485.374 158.812C484.338 158.814 483.011 158.51 481.392 157.901L473.596 155.003L477.956 164.061Z" fill="black"/>
<path d="M481.345 179.082C480.806 177.629 480.693 176.198 481.007 174.787C481.344 173.388 482.101 172.102 483.278 170.928C484.456 169.755 486.016 168.808 487.958 168.087C489.901 167.367 491.701 167.067 493.359 167.189C495.017 167.311 496.421 167.795 497.572 168.643C498.746 169.501 499.603 170.657 500.142 172.109C500.674 173.544 500.772 174.962 500.435 176.361C500.121 177.771 499.376 179.063 498.199 180.236C497.021 181.41 495.461 182.357 493.519 183.077C491.576 183.798 489.776 184.097 488.118 183.976C486.46 183.854 485.044 183.364 483.87 182.506C482.719 181.658 481.878 180.517 481.345 179.082ZM483.682 178.215C484.227 179.685 485.266 180.634 486.798 181.061C488.337 181.506 490.252 181.303 492.545 180.452C494.838 179.602 496.422 178.506 497.299 177.166C498.182 175.843 498.351 174.446 497.805 172.976C497.253 171.488 496.208 170.522 494.669 170.078C493.137 169.651 491.225 169.862 488.932 170.713C486.639 171.563 485.052 172.65 484.169 173.973C483.292 175.313 483.13 176.727 483.682 178.215Z" fill="black"/>
<path d="M496.174 193.414C495.838 192.093 496.045 190.904 496.797 189.845C497.548 188.787 498.692 188.062 500.23 187.67C501.767 187.279 503.119 187.368 504.285 187.938C505.451 188.507 506.203 189.452 506.539 190.773C506.875 192.093 506.666 193.274 505.91 194.314C505.176 195.368 504.032 196.093 502.476 196.489C500.921 196.885 499.56 196.798 498.394 196.229C497.25 195.672 496.511 194.734 496.174 193.414ZM509.293 202.265L509.826 204.354L487.528 196.223L486.996 194.134L509.293 202.265ZM497.721 193.019C497.933 193.852 498.415 194.422 499.168 194.731C499.939 195.036 500.894 195.043 502.034 194.752C503.174 194.462 504 194.001 504.513 193.369C505.045 192.733 505.204 191.999 504.992 191.167C504.785 190.353 504.294 189.785 503.518 189.462C502.747 189.158 501.801 189.148 500.679 189.434C499.558 189.72 498.731 190.181 498.2 190.817C497.673 191.471 497.513 192.205 497.721 193.019ZM490.282 207.715C489.946 206.394 490.144 205.207 490.878 204.154C491.634 203.113 492.789 202.395 494.345 201.999C495.901 201.603 497.25 201.682 498.394 202.239C499.56 202.809 500.311 203.754 500.647 205.074C500.984 206.395 500.776 207.584 500.025 208.642C499.274 209.7 498.129 210.425 496.592 210.817C495.054 211.209 493.702 211.12 492.536 210.55C491.37 209.98 490.619 209.035 490.282 207.715ZM491.829 207.321C492.036 208.135 492.525 208.694 493.297 208.998C494.072 209.321 495.021 209.339 496.142 209.053C497.264 208.768 498.088 208.298 498.615 207.643C499.146 207.007 499.308 206.282 499.101 205.468C498.889 204.636 498.397 204.068 497.626 203.763C496.873 203.454 495.927 203.445 494.787 203.735C493.648 204.026 492.812 204.489 492.281 205.125C491.768 205.757 491.617 206.489 491.829 207.321Z" fill="black"/>
</svg>
